<svg xmlns="http://www.w3.org/2000/svg" viewBox="0 0 64 64" width="48" height="48">
    <title>Java</title>
    <path
        d="M23.6 48.9s-1.9 1.1 1.3 1.5c3.8.4 5.8.3 10.1-.4 0 0 1.1.7 2.6 1.3-9.2 3.9-20.8-.2-14-2.4zM22.4 43.6s-2.2 1.6 1.1 1.9c4.2.4 7.6.4 13.4-.6 0 0 .8.8 2.1 1.2-12.2 3.5-25.7.3-16.6-2.5zM34.3 31.2c2.4 2.7-.6 5.1-.6 5.1s6.1-3.2 3.3-7.1c-2.6-3.6-4.7-5.4 6.4-11.6 0 .1-17.4 4.3-9.1 13.6zM48.8 52.9s1.5 1.2-1.7 2.2c-6.2 1.9-25.8 2.5-31.3.1-2-1 1.7-2.4 2.8-2.6 1.2-.3 1.9-.2 1.9-.2-2.2-1.6-14.3 3.1-6.1 4.5 22.2 3.6 40.5-1.6 34.4-4zM25.1 38.2s-10.2 2.4-3.6 3.2c2.7.3 8.1.2 13.1-.1 4.1-.3 8.2-.9 8.2-.9s-1.4.6-2.4 1.3c-9.6 2.5-28.1 1.3-22.8-1.2 4.5-2.1 7.5-2.3 7.5-2.3zM45.4 46.8c9.8-5.1 5.3-10 2.1-9.3-1 .2-1.5.4-1.5.4s.4-.6 1.1-.9c8.1-2.8 14.3 8.4-2.6 12.8 0 0 .2-.2.9-.6zM38.9 0s5.8 5.8-5.5 14.7c-9 7.1-2 11.2 0 15.8-5.2-4.7-9-8.8-6.4-12.6C30.7 12.2 40.9 8.7 38.9 0z"
        fill="#832828" />
</svg>